<svg version="1.1" xmlns="http://www.w3.org/2000/svg" xmlns:xlink="http://www.w3.org/1999/xlink" width="70" height="70" viewBox="0,0,70,70" odoo-icon:version="1.0" xmlns:odoo-icon="https://ivantodorovich.github.io/odoo-icon" odoo-icon:size="70" odoo-icon:icon-size="0.64" odoo-icon:icon-color="#FFFFFF" odoo-icon:icon-flat-shadow-angle="135" odoo-icon:background-color="#5a9442" odoo-icon:background-gradient="0.2" odoo-icon:box-radius="3.5" odoo-icon:odoo-version="14.0"><defs><linearGradient x1="70" y1="0" x2="0" y2="70" gradientUnits="userSpaceOnUse" id="color-1"><stop offset="0" stop-color="#8dc775"/><stop offset="1" stop-color="#5a9442"/></linearGradient></defs><g fill="none" fill-rule="nonzero" stroke="none" stroke-width="1" stroke-linecap="butt" stroke-linejoin="miter" stroke-miterlimit="10" stroke-dasharray="" stroke-dashoffset="0" font-family="none" font-weight="none" font-size="none" text-anchor="none" style="mix-blend-mode: normal"><path d="M3.5,70c-1.933,0 -3.5,-1.567 -3.5,-3.5v-63c0,-1.933 1.567,-3.5 3.5,-3.5h63c1.933,0 3.5,1.567 3.5,3.5v63c0,1.933 -1.567,3.5 -3.5,3.5z" id="box" fill="url(#color-1)"/><path d="M65,1h-61c-1.95033,0 -3.2667,0.63396 -3.9491,1.90189c0.28378,-1.64806 1.72001,-2.90189 3.4491,-2.90189h63c1.72965,0 3.16627,1.25466 3.44938,2.90352c-0.69803,-1.26902 -2.34782,-1.90352 -4.94938,-1.90352z" id="topBoxShadow" fill="#ffffff" opacity="0.383"/><path d="M4,69h61c2.66667,0 4.33333,-1 5,-3v0.5c0,1.933 -1.567,3.5 -3.5,3.5h-63c-1.933,0 -3.5,-1.567 -3.5,-3.5c0,-0.1611 0,-0.32777 0,-0.5c0.66667,2 2,3 4,3z" id="bottomBoxShadow" fill="#000000" opacity="0.383"/><path d="M22.0394,29.51466v14.9718c0,2.2703 1.27344,3.40649 3.81687,3.40649h31.52143l-0.0131,4.78591l-0.11196,4.75373h-31.39636c-3.71042,0 -6.86447,-1.22953 -9.46239,-3.68857c-0.36164,-0.34187 -0.69132,-0.69844 -1.00123,-1.06514c-1.92522,-2.26708 -2.89265,-4.9896 -2.89265,-8.18067v-14.99663c0,-3.70168 1.29711,-6.78355 3.89388,-9.2442c2.59791,-2.46043 5.75196,-3.68996 9.46239,-3.68996h31.64373l-2.23351,4.8374l2.23351,4.7036h-31.64373c-2.54342,0 -3.81687,1.13504 -3.81687,3.40625zM51.54427,41.7695h-25.94189v-9.53963h25.94189z" id="shadow" fill="#000000" opacity="0.3"/><path d="M57.3777,45.89295l-0.0131,4.78591l-0.11196,4.75373l-14.56742,14.56742h-39.18521c-1.933,0 -3.5,-1.567 -3.5,-3.5l0,-31.85598l16.12275,-16.12275c0.08874,-0.08874 0.17912,-0.17671 0.27113,-0.26389c2.59791,-2.46043 5.75196,-3.68996 9.46239,-3.68996h31.64373l-2.23351,4.8374l2.23351,4.7036l-6.12145,6.12145h0.16572v9.53962l-6.12345,6.12345z" id="flatShadow" fill="#000000" opacity="0.324"/><path d="M22.0394,27.51466v14.9718c0,2.2703 1.27344,3.40649 3.81687,3.40649h31.52143l-0.0131,4.78591l-0.11196,4.75373h-31.39636c-3.71042,0 -6.86447,-1.22953 -9.46239,-3.68857c-0.36164,-0.34187 -0.69132,-0.69844 -1.00123,-1.06514c-1.92522,-2.26708 -2.89265,-4.9896 -2.89265,-8.18067v-14.99663c0,-3.70168 1.29711,-6.78355 3.89388,-9.2442c2.59791,-2.46043 5.75196,-3.68996 9.46239,-3.68996h31.64373l-2.23351,4.8374l2.23351,4.7036h-31.64373c-2.54342,0 -3.81687,1.13504 -3.81687,3.40625zM51.54427,39.7695h-25.94189v-9.53962h25.94189z" id="icon" fill="#ffffff"/></g></svg>