<svg version="1.1" xmlns="http://www.w3.org/2000/svg" xmlns:xlink="http://www.w3.org/1999/xlink" width="70" height="70" viewBox="0,0,70,70" odoo-icon:version="1.0" xmlns:odoo-icon="https://ivantodorovich.github.io/odoo-icon" odoo-icon:size="70" odoo-icon:icon-size="0.49" odoo-icon:icon-color="#FFFFFF" odoo-icon:icon-flat-shadow-angle="135" odoo-icon:background-color="#ffbc30" odoo-icon:background-gradient="0.2" odoo-icon:box-radius="3.5" odoo-icon:odoo-version="14.0"><defs><linearGradient x1="70" y1="0" x2="0" y2="70" gradientUnits="userSpaceOnUse" id="color-1"><stop offset="0" stop-color="#ffef63"/><stop offset="1" stop-color="#ffbc30"/></linearGradient></defs><g fill="none" fill-rule="nonzero" stroke="none" stroke-width="1" stroke-linecap="butt" stroke-linejoin="miter" stroke-miterlimit="10" stroke-dasharray="" stroke-dashoffset="0" font-family="none" font-weight="none" font-size="none" text-anchor="none" style="mix-blend-mode: normal"><path d="M3.5,70c-1.933,0 -3.5,-1.567 -3.5,-3.5v-63c0,-1.933 1.567,-3.5 3.5,-3.5h63c1.933,0 3.5,1.567 3.5,3.5v63c0,1.933 -1.567,3.5 -3.5,3.5z" id="box" fill="url(#color-1)"/><path d="M65,1h-61c-1.95033,0 -3.2667,0.63396 -3.9491,1.90189c0.28378,-1.64806 1.72001,-2.90189 3.4491,-2.90189h63c1.72965,0 3.16627,1.25466 3.44938,2.90352c-0.69803,-1.26902 -2.34782,-1.90352 -4.94938,-1.90352z" id="topBoxShadow" fill="#ffffff" opacity="0.383"/><path d="M4,69h61c2.66667,0 4.33333,-1 5,-3v0.5c0,1.933 -1.567,3.5 -3.5,3.5h-63c-1.933,0 -3.5,-1.567 -3.5,-3.5c0,-0.1611 0,-0.32777 0,-0.5c0.66667,2 2,3 4,3z" id="bottomBoxShadow" fill="#000000" opacity="0.383"/><path d="M24.91953,31.17807v11.64473c0,1.76579 0.99045,2.64949 2.96867,2.64949h24.51667l-0.01019,3.72237l-0.08708,3.69734h-24.41939c-2.88588,0 -5.33903,-0.9563 -7.35963,-2.86889c-0.28128,-0.2659 -0.53769,-0.54323 -0.77873,-0.82844c-1.49739,-1.76328 -2.24984,-3.8808 -2.24984,-6.36274v-11.66404c0,-2.87908 1.00887,-5.27609 3.02858,-7.18993c2.0206,-1.91367 4.47375,-2.86997 7.35963,-2.86997h24.61179l-1.73717,3.76243l1.73717,3.65836h-24.61179c-1.97822,0 -2.96867,0.88281 -2.96867,2.64931zM47.86777,40.70961h-20.17703v-7.41971h20.17703z" id="shadow" fill="#000000" opacity="0.3"/><path d="M52.40488,43.47229l-0.01019,3.72237l-0.08708,3.69734l-19.10799,19.10799h-29.69961c-1.933,0 -3.5,-1.567 -3.5,-3.5l0,-23.99909l20.3177,-20.3177c0.06902,-0.06902 0.13932,-0.13744 0.21088,-0.20525c2.0206,-1.91367 4.47375,-2.86997 7.35963,-2.86997h24.61179l-1.73717,3.76243l1.73717,3.65836l-4.76113,4.76112h0.12889v7.41971l-4.76268,4.76268z" id="flatShadow" fill="#000000" opacity="0.324"/><path d="M24.91953,29.17807v11.64473c0,1.76579 0.99045,2.64949 2.96867,2.64949h24.51667l-0.01019,3.72237l-0.08708,3.69734h-24.41939c-2.88588,0 -5.33903,-0.9563 -7.35963,-2.86889c-0.28128,-0.2659 -0.53769,-0.54323 -0.77873,-0.82844c-1.49739,-1.76328 -2.24984,-3.8808 -2.24984,-6.36274v-11.66404c0,-2.87908 1.00887,-5.27609 3.02858,-7.18993c2.0206,-1.91367 4.47375,-2.86997 7.35963,-2.86997h24.61179l-1.73717,3.76243l1.73717,3.65836h-24.61179c-1.97822,0 -2.96867,0.88281 -2.96867,2.64931zM47.86777,38.70961h-20.17703v-7.41971h20.17703z" id="icon" fill="#ffffff"/></g></svg>